<mxfile host="app.diagrams.net" agent="Mozilla/5.0 (Macintosh; Intel Mac OS X 10_15_7) AppleWebKit/537.36 (KHTML, like Gecko) Chrome/134.0.0.0 Safari/537.36" version="26.2.12">
  <diagram name="第 1 页" id="mKA3w7eTTw40SLOBskDn">
    <mxGraphModel dx="924" dy="620" grid="1" gridSize="10" guides="1" tooltips="1" connect="1" arrows="1" fold="1" page="1" pageScale="1" pageWidth="827" pageHeight="1169" math="0" shadow="0">
      <root>
        <mxCell id="0" />
        <mxCell id="1" parent="0" />
        <mxCell id="Io9apnNidpWtVAX-Aoyz-15" value="" style="edgeStyle=orthogonalEdgeStyle;rounded=0;orthogonalLoop=1;jettySize=auto;html=1;entryX=0.5;entryY=0;entryDx=0;entryDy=0;" parent="1" source="Io9apnNidpWtVAX-Aoyz-1" target="Io9apnNidpWtVAX-Aoyz-19" edge="1">
          <mxGeometry relative="1" as="geometry">
            <mxPoint x="302.5" y="265" as="targetPoint" />
          </mxGeometry>
        </mxCell>
        <mxCell id="Io9apnNidpWtVAX-Aoyz-1" value="" style="rounded=0;whiteSpace=wrap;html=1;" parent="1" vertex="1">
          <mxGeometry x="170" y="130" width="360" height="70" as="geometry" />
        </mxCell>
        <mxCell id="Io9apnNidpWtVAX-Aoyz-2" value="工作端App" style="rounded=0;whiteSpace=wrap;html=1;" parent="1" vertex="1">
          <mxGeometry x="180" y="150" width="80" height="30" as="geometry" />
        </mxCell>
        <mxCell id="Io9apnNidpWtVAX-Aoyz-3" value="小程序" style="rounded=0;whiteSpace=wrap;html=1;" parent="1" vertex="1">
          <mxGeometry x="353" y="150" width="80" height="30" as="geometry" />
        </mxCell>
        <mxCell id="Io9apnNidpWtVAX-Aoyz-4" value="H5" style="rounded=0;whiteSpace=wrap;html=1;" parent="1" vertex="1">
          <mxGeometry x="440" y="150" width="80" height="30" as="geometry" />
        </mxCell>
        <mxCell id="Io9apnNidpWtVAX-Aoyz-5" value="58APP" style="rounded=0;whiteSpace=wrap;html=1;" parent="1" vertex="1">
          <mxGeometry x="267" y="150" width="80" height="30" as="geometry" />
        </mxCell>
        <mxCell id="Io9apnNidpWtVAX-Aoyz-6" value="139W" style="text;html=1;align=center;verticalAlign=middle;whiteSpace=wrap;rounded=0;fontStyle=1;fontSize=19;" parent="1" vertex="1">
          <mxGeometry x="550" y="150" width="60" height="30" as="geometry" />
        </mxCell>
        <mxCell id="Io9apnNidpWtVAX-Aoyz-9" value="137155" style="text;html=1;align=center;verticalAlign=middle;whiteSpace=wrap;rounded=0;fontStyle=1;fontSize=19;" parent="1" vertex="1">
          <mxGeometry x="520" y="280" width="60" height="30" as="geometry" />
        </mxCell>
        <mxCell id="Io9apnNidpWtVAX-Aoyz-24" style="edgeStyle=orthogonalEdgeStyle;rounded=0;orthogonalLoop=1;jettySize=auto;html=1;exitX=0;exitY=0.75;exitDx=0;exitDy=0;entryX=1;entryY=0.75;entryDx=0;entryDy=0;" parent="1" source="Io9apnNidpWtVAX-Aoyz-17" target="Io9apnNidpWtVAX-Aoyz-21" edge="1">
          <mxGeometry relative="1" as="geometry" />
        </mxCell>
        <mxCell id="Io9apnNidpWtVAX-Aoyz-17" value="厂商push绑定关系查询" style="rounded=0;whiteSpace=wrap;html=1;" parent="1" vertex="1">
          <mxGeometry x="550" y="380" width="120" height="60" as="geometry" />
        </mxCell>
        <mxCell id="Io9apnNidpWtVAX-Aoyz-20" value="" style="edgeStyle=orthogonalEdgeStyle;rounded=0;orthogonalLoop=1;jettySize=auto;html=1;" parent="1" source="Io9apnNidpWtVAX-Aoyz-19" edge="1">
          <mxGeometry relative="1" as="geometry">
            <mxPoint x="350" y="380" as="targetPoint" />
          </mxGeometry>
        </mxCell>
        <mxCell id="Io9apnNidpWtVAX-Aoyz-19" value="工作端" style="rounded=0;whiteSpace=wrap;html=1;" parent="1" vertex="1">
          <mxGeometry x="290" y="260" width="120" height="60" as="geometry" />
        </mxCell>
        <mxCell id="Io9apnNidpWtVAX-Aoyz-22" style="edgeStyle=orthogonalEdgeStyle;rounded=0;orthogonalLoop=1;jettySize=auto;html=1;entryX=0;entryY=0.5;entryDx=0;entryDy=0;" parent="1" source="Io9apnNidpWtVAX-Aoyz-21" target="Io9apnNidpWtVAX-Aoyz-17" edge="1">
          <mxGeometry relative="1" as="geometry" />
        </mxCell>
        <mxCell id="Io9apnNidpWtVAX-Aoyz-27" value="" style="edgeStyle=orthogonalEdgeStyle;rounded=0;orthogonalLoop=1;jettySize=auto;html=1;exitX=0.25;exitY=1;exitDx=0;exitDy=0;entryX=0.25;entryY=0;entryDx=0;entryDy=0;" parent="1" source="Io9apnNidpWtVAX-Aoyz-21" target="Io9apnNidpWtVAX-Aoyz-26" edge="1">
          <mxGeometry relative="1" as="geometry" />
        </mxCell>
        <mxCell id="Io9apnNidpWtVAX-Aoyz-21" value="WPUSH" style="rounded=0;whiteSpace=wrap;html=1;" parent="1" vertex="1">
          <mxGeometry x="290" y="380" width="120" height="60" as="geometry" />
        </mxCell>
        <mxCell id="Io9apnNidpWtVAX-Aoyz-23" value="137155" style="text;html=1;align=center;verticalAlign=middle;resizable=0;points=[];autosize=1;strokeColor=none;fillColor=none;" parent="1" vertex="1">
          <mxGeometry x="450" y="378" width="60" height="30" as="geometry" />
        </mxCell>
        <mxCell id="Io9apnNidpWtVAX-Aoyz-25" value="59129" style="text;html=1;align=center;verticalAlign=middle;resizable=0;points=[];autosize=1;strokeColor=none;fillColor=none;" parent="1" vertex="1">
          <mxGeometry x="450" y="430" width="60" height="30" as="geometry" />
        </mxCell>
        <mxCell id="Io9apnNidpWtVAX-Aoyz-32" value="" style="edgeStyle=orthogonalEdgeStyle;rounded=0;orthogonalLoop=1;jettySize=auto;html=1;" parent="1" source="Io9apnNidpWtVAX-Aoyz-26" target="Io9apnNidpWtVAX-Aoyz-29" edge="1">
          <mxGeometry relative="1" as="geometry" />
        </mxCell>
        <mxCell id="Io9apnNidpWtVAX-Aoyz-35" style="edgeStyle=orthogonalEdgeStyle;rounded=0;orthogonalLoop=1;jettySize=auto;html=1;exitX=0.75;exitY=0;exitDx=0;exitDy=0;entryX=0.75;entryY=1;entryDx=0;entryDy=0;" parent="1" source="Io9apnNidpWtVAX-Aoyz-26" target="Io9apnNidpWtVAX-Aoyz-21" edge="1">
          <mxGeometry relative="1" as="geometry" />
        </mxCell>
        <mxCell id="Io9apnNidpWtVAX-Aoyz-26" value="厂商" style="rounded=0;whiteSpace=wrap;html=1;" parent="1" vertex="1">
          <mxGeometry x="290" y="505" width="120" height="60" as="geometry" />
        </mxCell>
        <mxCell id="Io9apnNidpWtVAX-Aoyz-28" value="59129" style="text;html=1;align=center;verticalAlign=middle;whiteSpace=wrap;rounded=0;fontStyle=1;fontSize=19;" parent="1" vertex="1">
          <mxGeometry x="520" y="505" width="60" height="30" as="geometry" />
        </mxCell>
        <mxCell id="Io9apnNidpWtVAX-Aoyz-29" value="" style="rounded=0;whiteSpace=wrap;html=1;" parent="1" vertex="1">
          <mxGeometry x="230" y="600" width="240" height="70" as="geometry" />
        </mxCell>
        <mxCell id="Io9apnNidpWtVAX-Aoyz-30" value="137155" style="text;html=1;align=center;verticalAlign=middle;resizable=0;points=[];autosize=1;strokeColor=none;fillColor=none;" parent="1" vertex="1">
          <mxGeometry x="354" y="340" width="60" height="30" as="geometry" />
        </mxCell>
        <mxCell id="Io9apnNidpWtVAX-Aoyz-31" value="59129" style="text;html=1;align=center;verticalAlign=middle;resizable=0;points=[];autosize=1;strokeColor=none;fillColor=none;" parent="1" vertex="1">
          <mxGeometry x="255" y="460" width="60" height="30" as="geometry" />
        </mxCell>
        <mxCell id="Io9apnNidpWtVAX-Aoyz-33" value="iOS设备" style="rounded=0;whiteSpace=wrap;html=1;" parent="1" vertex="1">
          <mxGeometry x="265" y="610" width="70" height="30" as="geometry" />
        </mxCell>
        <mxCell id="Io9apnNidpWtVAX-Aoyz-38" value="厂商返回32497" style="text;html=1;align=center;verticalAlign=middle;resizable=0;points=[];autosize=1;strokeColor=none;fillColor=none;" parent="1" vertex="1">
          <mxGeometry x="375" y="460" width="100" height="30" as="geometry" />
        </mxCell>
        <mxCell id="Io9apnNidpWtVAX-Aoyz-39" value="12654" style="text;html=1;align=center;verticalAlign=middle;resizable=0;points=[];autosize=1;strokeColor=none;fillColor=none;" parent="1" vertex="1">
          <mxGeometry x="265" y="640" width="60" height="30" as="geometry" />
        </mxCell>
        <mxCell id="Io9apnNidpWtVAX-Aoyz-40" value="Android设备" style="rounded=0;whiteSpace=wrap;html=1;" parent="1" vertex="1">
          <mxGeometry x="363" y="610" width="70" height="30" as="geometry" />
        </mxCell>
        <mxCell id="Io9apnNidpWtVAX-Aoyz-41" value="32497" style="text;html=1;align=center;verticalAlign=middle;resizable=0;points=[];autosize=1;strokeColor=none;fillColor=none;" parent="1" vertex="1">
          <mxGeometry x="368" y="640" width="60" height="30" as="geometry" />
        </mxCell>
        <mxCell id="Io9apnNidpWtVAX-Aoyz-42" value="45151" style="text;html=1;align=center;verticalAlign=middle;whiteSpace=wrap;rounded=0;fontStyle=1;fontSize=19;" parent="1" vertex="1">
          <mxGeometry x="520" y="620" width="60" height="30" as="geometry" />
        </mxCell>
        <mxCell id="Io9apnNidpWtVAX-Aoyz-43" value="*iOS不提供统计，到达率高，默认全部到达" style="text;html=1;align=center;verticalAlign=middle;resizable=0;points=[];autosize=1;strokeColor=none;fillColor=none;" parent="1" vertex="1">
          <mxGeometry x="225" y="690" width="250" height="30" as="geometry" />
        </mxCell>
      </root>
    </mxGraphModel>
  </diagram>
</mxfile>
